<svg width="32" height="32" viewBox="0 0 32 32" fill="none" xmlns="http://www.w3.org/2000/svg">
<path d="M13.884 26.6909C13.8803 26.6909 13.8759 26.6909 13.8721 26.6909C13.7171 26.6878 13.5709 26.6216 13.4659 26.5078L2.74963 14.8553C2.56588 14.6553 2.549 14.3541 2.70963 14.1347C2.87025 13.9159 3.16275 13.8409 3.409 13.9559L13.2171 18.5484C13.2996 18.5872 13.3971 18.5684 13.4603 18.5028L28.4215 2.86593C28.624 2.65405 28.9553 2.63093 29.1853 2.81343C29.4153 2.99593 29.4684 3.32343 29.3078 3.56905L14.4253 26.3678C14.404 26.4009 14.379 26.4309 14.3515 26.4591L14.2859 26.5247C14.179 26.6309 14.034 26.6909 13.884 26.6909Z" fill="url(#paint0_linear_182_2459)"/>
<defs>
<linearGradient id="paint0_linear_182_2459" x1="2.59961" y1="14.6907" x2="29.4003" y2="14.6907" gradientUnits="userSpaceOnUse">
<stop stop-color="#70411E"/>
<stop offset="1" stop-color="#EEDC9F"/>
</linearGradient>
</defs>
</svg>
