<svg preserveAspectRatio="none" width="100%" height="100%" overflow="visible" style="display: block;" viewBox="0 0 38.0014 38.0004" fill="none" xmlns="http://www.w3.org/2000/svg">
<g id="Group">
<path id="Vector" d="M28.8904 25.1379C27.6489 23.9122 26.099 23.9122 24.8654 25.1379C23.9244 26.071 22.9834 27.0041 22.0582 27.953C21.8051 28.2139 21.5916 28.2693 21.2832 28.0953C20.6743 27.7632 20.0259 27.4944 19.4408 27.1306C16.7126 25.4147 14.4273 23.2084 12.403 20.7254C11.3987 19.4918 10.5051 18.1713 9.88044 16.6846C9.75391 16.3841 9.77764 16.1865 10.0228 15.9413C10.9638 15.0319 11.8811 14.0988 12.8063 13.1657C14.0952 11.8689 14.0952 10.3506 12.7983 9.04588C12.0629 8.30256 11.3275 7.57506 10.5921 6.83174C9.83299 6.07261 9.08177 5.30557 8.31473 4.55435C7.07323 3.34448 5.52334 3.34448 4.28975 4.56226C3.34083 5.49535 2.43146 6.45218 1.46673 7.36946C0.573165 8.21558 0.122431 9.25148 0.0275393 10.4613C-0.122706 12.4303 0.359659 14.2886 1.03971 16.0995C2.43146 19.8477 4.5507 23.1768 7.12068 26.2291C10.5921 30.3569 14.7357 33.6228 19.5831 35.9792C21.7656 37.0389 24.0272 37.8533 26.4864 37.9878C28.1787 38.0827 29.6495 37.6556 30.8277 36.3351C31.6343 35.4336 32.5437 34.6112 33.3977 33.7493C34.6629 32.4682 34.6708 30.9184 33.4135 29.6531C31.9111 28.1428 30.4007 26.6403 28.8904 25.1379Z" fill="var(--fill-0, #D8C689)"/>
<path id="Vector_2" d="M27.3793 18.8355L30.2972 18.3374C29.8386 15.6567 28.5734 13.229 26.6518 11.2996C24.6196 9.26731 22.0496 7.98628 19.2187 7.5909L18.8075 10.5246C20.9979 10.833 22.9906 11.8215 24.5642 13.3951C26.0508 14.8817 27.0235 16.7637 27.3793 18.8355Z" fill="var(--fill-0, #D8C689)"/>
<path id="Vector_3" d="M31.9442 6.15213C28.5756 2.78348 24.3133 0.656333 19.6083 0L19.1971 2.93373C23.2616 3.50308 26.9466 5.34555 29.8566 8.24765C32.6163 11.0074 34.4272 14.4947 35.0835 18.3299L38.0014 17.8317C37.2344 13.3876 35.1389 9.35472 31.9442 6.15213Z" fill="var(--fill-0, #D8C689)"/>
</g>
</svg>
