<svg preserveAspectRatio="none" width="100%" height="100%" overflow="visible" style="display: block;" viewBox="0 0 17.9997 22" fill="none" xmlns="http://www.w3.org/2000/svg">
<g id="Layer 2">
<path id="Vector" d="M14.7164 2.05029C13.679 1.20085 12.466 0.592237 11.1649 0.268344C9.86377 -0.0555499 8.507 -0.0866491 7.19242 0.177289C5.50215 0.523829 3.94711 1.34894 2.71255 2.55434C1.478 3.75973 0.615952 5.2946 0.229112 6.97611C-0.157729 8.65761 -0.0530604 10.4149 0.530649 12.0386C1.11436 13.6623 2.1525 15.084 3.52142 16.1343C5.08435 17.2782 6.41507 18.7094 7.44242 20.3513L8.14242 21.5153C8.23132 21.6631 8.35697 21.7855 8.50714 21.8704C8.65731 21.9553 8.8269 22 8.99942 22C9.17194 22 9.34153 21.9553 9.4917 21.8704C9.64187 21.7855 9.76752 21.6631 9.85642 21.5153L10.5274 20.3973C11.422 18.8247 12.6418 17.461 14.1054 16.3973C15.253 15.6077 16.2014 14.5623 16.8759 13.3434C17.5503 12.1246 17.9322 10.7657 17.9916 9.37395C18.0509 7.98223 17.786 6.59576 17.2178 5.32392C16.6496 4.05209 15.7936 2.92969 14.7174 2.04529L14.7164 2.05029ZM8.99842 13.0013C8.20729 13.0013 7.43394 12.7667 6.77614 12.3272C6.11834 11.8876 5.60565 11.2629 5.3029 10.532C5.00015 9.80112 4.92094 8.99685 5.07528 8.22093C5.22962 7.445 5.61058 6.73227 6.16999 6.17286C6.7294 5.61345 7.44213 5.23249 8.21806 5.07815C8.99398 4.92381 9.79825 5.00302 10.5292 5.30577C11.2601 5.60852 11.8848 6.12121 12.3243 6.77901C12.7638 7.4368 12.9984 8.21016 12.9984 9.00129C12.9984 10.0622 12.577 11.0796 11.8268 11.8297C11.0767 12.5799 10.0593 13.0013 8.99842 13.0013Z" fill="var(--fill-0, #6F411E)"/>
</g>
</svg>
