<svg preserveAspectRatio="none" width="100%" height="100%" overflow="visible" style="display: block;" viewBox="0 0 24 24" fill="none" xmlns="http://www.w3.org/2000/svg">
<g id="Capa_1">
<g id="Vector">
<path d="M22.8062 5.14316L16.1341 12L22.8062 18.8568C22.9268 18.5961 23 18.3078 23 18V6C23 5.69213 22.9268 5.40391 22.8062 5.14316Z" fill="var(--fill-0, #6F411E)"/>
<path d="M21.0664 4H2.93359C2.63595 4 2.3573 4.07569 2.1052 4.20044L10.6329 12.9766C11.3869 13.7565 12.6131 13.7565 13.3671 12.9766L21.8948 4.20044C21.6427 4.07569 21.3641 4 21.0664 4Z" fill="var(--fill-0, #6F411E)"/>
<path d="M1.19379 5.14316C1.07318 5.40391 1 5.69213 1 6V18C1 18.3079 1.07318 18.5961 1.19379 18.8568L7.86593 12L1.19379 5.14316Z" fill="var(--fill-0, #6F411E)"/>
<path d="M15.2227 12.9427L14.2785 13.9193C13.0221 15.2188 10.9778 15.2188 9.72145 13.9193L8.77734 12.9427L2.1052 19.7996C2.3573 19.9243 2.63595 20 2.93359 20H21.0664C21.3641 20 21.6427 19.9243 21.8948 19.7996L15.2227 12.9427Z" fill="var(--fill-0, #6F411E)"/>
</g>
</g>
</svg>
