<svg width="20" height="20" viewBox="0 0 20 20" fill="none" xmlns="http://www.w3.org/2000/svg">
<path d="M17.9883 10.8372L16.3061 9.37891C15.1145 10.49 12.3529 13.3789 10.839 16.0456V1.87891H9.15678V16.0456C7.64281 13.3789 4.88121 10.49 3.68966 9.37891L2.00747 10.8372C3.54948 11.8789 7.05404 14.7956 8.73623 18.1289H11.2595C12.9417 14.7956 16.4463 11.8789 17.9883 10.8372Z" fill="white"/>
<path d="M18.1074 11.0058C16.5778 12.0391 13.1073 14.9314 11.4484 18.2185L11.3901 18.3337H8.60728L8.54896 18.2185C6.89011 14.9314 3.41964 12.0391 1.89001 11.0058L1.66537 10.854L3.69582 9.09416L3.83463 9.22355C4.93519 10.2498 7.37274 12.789 8.94733 15.2852V1.66699L11.0501 1.66699V15.2852C12.6247 12.789 15.0622 10.2498 16.1628 9.22355L16.3016 9.09416L18.332 10.854L18.1074 11.0058ZM16.3135 9.65731C15.0641 10.8455 12.466 13.6024 11.023 16.1441L10.6295 16.8375V2.08366H9.36788L9.36788 16.8375L8.97443 16.1441C7.5315 13.6026 4.93381 10.8456 3.68432 9.65731L2.34834 10.8158C3.97647 11.9646 7.21709 14.7381 8.86519 17.917H11.1326C12.7808 14.738 16.0215 11.9645 17.6495 10.8158L16.3135 9.65731Z" fill="white"/>
</svg>
