<svg width="40" height="40" viewBox="0 0 40 40" fill="none" xmlns="http://www.w3.org/2000/svg">
<g clip-path="url(#clip0_145_3432)">
<path d="M20 0C16.0444 0 12.1776 1.17298 8.88861 3.37061C5.59962 5.56824 3.03617 8.69181 1.52242 12.3463C0.00866572 16.0009 -0.387401 20.0222 0.384303 23.9018C1.15601 27.7814 3.06082 31.3451 5.85787 34.1421C8.65492 36.9392 12.2186 38.844 16.0982 39.6157C19.9778 40.3874 23.9992 39.9913 27.6537 38.4776C31.3082 36.9638 34.4318 34.4004 36.6294 31.1114C38.827 27.8224 40 23.9556 40 20C40 14.6957 37.8929 9.60859 34.1421 5.85786C30.3914 2.10714 25.3043 0 20 0ZM25.0684 18.1053L24.7369 20.8921C24.7225 21.0214 24.6608 21.1409 24.5636 21.2274C24.4664 21.3139 24.3406 21.3613 24.2105 21.3605H21.3158V29.6237C21.3165 29.7223 21.2782 29.8173 21.2091 29.8878C21.1401 29.9583 21.046 29.9986 20.9474 30H18C17.9509 29.9993 17.9025 29.989 17.8574 29.9696C17.8123 29.9501 17.7715 29.922 17.7373 29.8868C17.7031 29.8517 17.6761 29.8101 17.658 29.7645C17.6399 29.7189 17.6309 29.6701 17.6316 29.6211L17.6474 21.3605H15.4553C15.3157 21.3605 15.1818 21.3051 15.0831 21.2064C14.9844 21.1077 14.929 20.9738 14.929 20.8342V18.05C14.929 17.9104 14.9844 17.7765 15.0831 17.6778C15.1818 17.5791 15.3157 17.5237 15.4553 17.5237H17.6316V14.8237C17.6316 11.7 19.4921 10 22.2105 10H24.4395C24.5791 10 24.7129 10.0555 24.8116 10.1542C24.9103 10.2529 24.9658 10.3867 24.9658 10.5263V12.8711C24.9658 13.0106 24.9103 13.1445 24.8116 13.2432C24.7129 13.3419 24.5791 13.3974 24.4395 13.3974H23.0737C21.5947 13.4211 21.3158 14.1289 21.3158 15.1868V17.5158H24.5579C24.6313 17.5175 24.7036 17.5345 24.7701 17.5658C24.8365 17.597 24.8957 17.6419 24.9438 17.6974C24.9919 17.7529 25.0278 17.8179 25.0493 17.8881C25.0707 17.9584 25.0773 18.0323 25.0684 18.1053Z" fill="url(#paint0_linear_145_3432)"/>
<path d="M24.7376 20.8921L25.0692 18.1053C25.078 18.0323 25.0715 17.9584 25.05 17.8881C25.0285 17.8179 24.9926 17.7529 24.9445 17.6974C24.8964 17.6419 24.8372 17.597 24.7708 17.5658C24.7043 17.5345 24.6321 17.5175 24.5586 17.5158H21.3165V15.1868C21.3165 14.1289 21.5955 13.4211 23.0744 13.3974H24.4402C24.5798 13.3974 24.7137 13.3419 24.8124 13.2432C24.9111 13.1445 24.9665 13.0106 24.9665 12.8711V10.5263C24.9665 10.3867 24.9111 10.2529 24.8124 10.1542C24.7137 10.0555 24.5798 10 24.4402 10H22.2113C19.4928 10 17.6323 11.7 17.6323 14.8237V17.5237H15.456C15.3164 17.5237 15.1825 17.5791 15.0838 17.6778C14.9851 17.7765 14.9297 17.9104 14.9297 18.05V20.8342C14.9297 20.9738 14.9851 21.1077 15.0838 21.2064C15.1825 21.3051 15.3164 21.3605 15.456 21.3605H17.6481L17.6323 29.6211C17.6316 29.6701 17.6406 29.7189 17.6587 29.7645C17.6769 29.8101 17.7038 29.8517 17.738 29.8868C17.7722 29.922 17.8131 29.9501 17.8581 29.9696C17.9032 29.989 17.9517 29.9993 18.0007 30H20.9481C21.0468 29.9986 21.1409 29.9583 21.2099 29.8878C21.2789 29.8173 21.3172 29.7223 21.3165 29.6237V21.3605H24.2113C24.3414 21.3613 24.4672 21.3139 24.5644 21.2274C24.6616 21.1409 24.7233 21.0214 24.7376 20.8921Z" fill="#DDDDDD"/>
</g>
<defs>
<linearGradient id="paint0_linear_145_3432" x1="0" y1="20" x2="40" y2="20" gradientUnits="userSpaceOnUse">
<stop stop-color="#70411E"/>
<stop offset="1" stop-color="#EEDC9F"/>
</linearGradient>
<clipPath id="clip0_145_3432">
<rect width="40" height="40" fill="white"/>
</clipPath>
</defs>
</svg>
