<svg width="24" height="24" viewBox="0 0 24 24" fill="none" xmlns="http://www.w3.org/2000/svg">
<g clip-path="url(#clip0_145_3302)">
<path d="M18.5028 14.6749C18.0443 14.1975 17.4913 13.9423 16.9052 13.9423C16.3238 13.9423 15.7661 14.1928 15.2887 14.6702L13.7951 16.159C13.6723 16.0929 13.5494 16.0314 13.4312 15.97C13.2611 15.8849 13.1004 15.8046 12.9633 15.7195C11.5642 14.8309 10.2928 13.6729 9.07336 12.1746C8.48254 11.4278 8.08552 10.7992 7.7972 10.1611C8.18477 9.80661 8.54399 9.43794 8.89375 9.08345C9.02609 8.95111 9.15843 8.81404 9.29078 8.6817C10.2833 7.68913 10.2833 6.40351 9.29078 5.41095L8.00044 4.12061C7.85392 3.97408 7.70267 3.82284 7.56087 3.67159C7.27728 3.37854 6.97951 3.07605 6.67229 2.79245C6.21381 2.33871 5.66554 2.09766 5.0889 2.09766C4.51227 2.09766 3.95454 2.33871 3.48189 2.79245C3.47716 2.79718 3.47716 2.79718 3.47243 2.80191L1.86542 4.4231C1.26042 5.0281 0.915386 5.76544 0.839761 6.62094C0.726325 8.00108 1.13281 9.28669 1.44476 10.128C2.21045 12.1935 3.35427 14.1077 5.06054 16.159C7.13076 18.631 9.62163 20.5831 12.467 21.9585C13.5541 22.4737 15.0051 23.0834 16.6263 23.1874C16.7256 23.1921 16.8296 23.1968 16.9241 23.1968C18.0159 23.1968 18.9329 22.8045 19.6513 22.0247C19.656 22.0152 19.6655 22.0105 19.6702 22.001C19.916 21.7033 20.1996 21.4338 20.4974 21.1455C20.7006 20.9517 20.9086 20.7485 21.1118 20.5358C21.5797 20.049 21.8255 19.4818 21.8255 18.9004C21.8255 18.3143 21.575 17.7519 21.0976 17.2792L18.5028 14.6749ZM20.1949 19.6519C20.1901 19.6519 20.1901 19.6567 20.1949 19.6519C20.0105 19.8505 19.8215 20.0301 19.6182 20.2286C19.311 20.5216 18.999 20.8289 18.706 21.1739C18.2286 21.6844 17.6662 21.9254 16.9288 21.9254C16.8579 21.9254 16.7823 21.9254 16.7114 21.9207C15.3076 21.8309 14.0031 21.2826 13.0247 20.8147C10.3495 19.5196 8.00044 17.681 6.04839 15.3508C4.43664 13.4082 3.359 11.6121 2.64529 9.68372C2.20573 8.50682 2.04502 7.58987 2.11592 6.72492C2.16319 6.17192 2.37588 5.71344 2.76818 5.32114L4.37992 3.7094C4.61152 3.49198 4.8573 3.37382 5.09836 3.37382C5.39613 3.37382 5.63718 3.55342 5.78843 3.70467C5.79315 3.7094 5.79788 3.71413 5.80261 3.71885C6.09092 3.98826 6.36506 4.26713 6.65338 4.5649C6.7999 4.71615 6.95115 4.8674 7.1024 5.02337L8.39274 6.31371C8.89375 6.81472 8.89375 7.27792 8.39274 7.77893C8.25567 7.916 8.12333 8.05307 7.98626 8.18541C7.58923 8.59189 7.21111 8.97002 6.7999 9.33868C6.79045 9.34814 6.781 9.35286 6.77627 9.36232C6.36979 9.7688 6.44541 10.1658 6.53049 10.4352C6.53522 10.4494 6.53994 10.4636 6.54467 10.4778C6.88025 11.2907 7.3529 12.0564 8.07134 12.9686L8.07606 12.9734C9.38058 14.5804 10.756 15.8329 12.2732 16.7924C12.467 16.9153 12.6655 17.0146 12.8546 17.1091C13.0247 17.1942 13.1854 17.2745 13.3225 17.3596C13.3414 17.369 13.3603 17.3832 13.3792 17.3927C13.5399 17.473 13.6912 17.5108 13.8471 17.5108C14.2394 17.5108 14.4852 17.2651 14.5656 17.1847L16.182 15.5682C16.3427 15.4075 16.598 15.2137 16.8957 15.2137C17.1888 15.2137 17.4298 15.3981 17.5764 15.5588C17.5811 15.5635 17.5811 15.5635 17.5858 15.5682L20.1901 18.1725C20.677 18.6547 20.677 19.1509 20.1949 19.6519Z" fill="white"/>
<path d="M12.9061 6.13005C14.1444 6.33802 15.2693 6.92411 16.1674 7.82215C17.0654 8.72019 17.6468 9.8451 17.8595 11.0834C17.9115 11.3954 18.1809 11.6128 18.4881 11.6128C18.5259 11.6128 18.559 11.6081 18.5968 11.6034C18.9466 11.5466 19.1782 11.2158 19.1215 10.866C18.8662 9.36772 18.1572 8.00176 17.0749 6.91938C15.9925 5.83701 14.6265 5.12803 13.1282 4.8728C12.7785 4.81608 12.4523 5.04768 12.3909 5.39272C12.3294 5.73775 12.5563 6.07334 12.9061 6.13005Z" fill="white"/>
<path d="M23.1726 10.6814C22.752 8.21419 21.5892 5.96909 19.8026 4.18247C18.016 2.39585 15.7709 1.23312 13.3036 0.812462C12.9586 0.751018 12.6325 0.987343 12.571 1.33238C12.5143 1.68214 12.7459 2.00827 13.0957 2.06972C15.2982 2.44311 17.307 3.48767 18.9046 5.08051C20.5021 6.67807 21.542 8.68684 21.9154 10.8894C21.9674 11.2014 22.2368 11.4188 22.544 11.4188C22.5818 11.4188 22.6149 11.414 22.6527 11.4093C22.9977 11.3573 23.2341 11.0265 23.1726 10.6814Z" fill="white"/>
</g>
<defs>
<clipPath id="clip0_145_3302">
<rect width="24" height="24" fill="white"/>
</clipPath>
</defs>
</svg>
