<svg width="24" height="24" viewBox="0 0 24 24" fill="none" xmlns="http://www.w3.org/2000/svg">
<path d="M20.9934 20.9995L20.9979 20.9988V14.3976C20.9979 11.1683 20.3027 8.68066 16.5274 8.68066C14.7125 8.68066 13.4945 9.67661 12.9973 10.6208H12.9448V8.98215H9.36523V20.9988H13.0925V15.0486C13.0925 13.4819 13.3895 11.967 15.3297 11.967C17.2413 11.967 17.2698 13.7549 17.2698 15.1491V20.9995H20.9934Z" fill="white"/>
<path d="M3.29688 8.98242H7.02868V20.999H3.29688V8.98242Z" fill="white"/>
<path d="M5.16139 3C3.9682 3 3 3.9682 3 5.16139C3 6.35457 3.9682 7.34302 5.16139 7.34302C6.35457 7.34302 7.32277 6.35457 7.32277 5.16139C7.32202 3.9682 6.35382 3 5.16139 3Z" fill="white"/>
</svg>
