<svg width="24" height="24" viewBox="0 0 24 24" fill="none" xmlns="http://www.w3.org/2000/svg">
<path d="M16.4997 3H7.49989C5.02517 3 3 5.02517 3 7.49989V16.5001C3 18.9742 5.02517 21 7.49989 21H16.4997C18.9744 21 20.9996 18.9742 20.9996 16.5001V7.49989C20.9996 5.02517 18.9744 3 16.4997 3ZM19.4995 16.5001C19.4995 18.1538 18.1543 19.5 16.4997 19.5H7.49989C5.84596 19.5 4.50004 18.1538 4.50004 16.5001V7.49989C4.50004 5.84574 5.84596 4.50004 7.49989 4.50004H16.4997C18.1543 4.50004 19.4995 5.84574 19.4995 7.49989V16.5001Z" fill="white"/>
<path d="M16.875 8.24995C17.4963 8.24995 17.9999 7.74628 17.9999 7.12497C17.9999 6.50367 17.4963 6 16.875 6C16.2537 6 15.75 6.50367 15.75 7.12497C15.75 7.74628 16.2537 8.24995 16.875 8.24995Z" fill="white"/>
<path d="M11.9999 7.5C9.51414 7.5 7.5 9.51436 7.5 11.9999C7.5 14.4845 9.51414 16.5002 11.9999 16.5002C14.4849 16.5002 16.4998 14.4845 16.4998 11.9999C16.4998 9.51436 14.4849 7.5 11.9999 7.5ZM11.9999 15.0002C10.3432 15.0002 9.00004 13.657 9.00004 11.9999C9.00004 10.3428 10.3432 9.00004 11.9999 9.00004C13.6565 9.00004 14.9997 10.3428 14.9997 11.9999C14.9997 13.657 13.6565 15.0002 11.9999 15.0002Z" fill="white"/>
</svg>
