<svg width="24" height="24" viewBox="0 0 24 24" fill="none" xmlns="http://www.w3.org/2000/svg">
<path d="M21.0229 3.80273H2.97705C1.91816 3.80273 1.05273 4.66436 1.05273 5.72705V17.2729C1.05273 18.336 1.91872 19.1973 2.97705 19.1973H21.0229C22.0817 19.1973 22.9472 18.3356 22.9472 17.2729V5.72705C22.9472 4.6641 22.0813 3.80273 21.0229 3.80273ZM20.7274 5.08561C20.1052 5.70982 12.7973 13.0416 12.497 13.3428C12.2463 13.5943 11.7538 13.5945 11.5029 13.3428L3.27254 5.08561H20.7274ZM2.33561 17.0371V5.96289L7.85476 11.5L2.33561 17.0371ZM3.27254 17.9144L8.76043 12.4086L10.5943 14.2485C11.3458 15.0024 12.6544 15.0021 13.4056 14.2485L15.2395 12.4087L20.7274 17.9144H3.27254ZM21.6643 17.0371L16.1451 11.5L21.6643 5.96289V17.0371Z" fill="white"/>
</svg>
