<svg preserveAspectRatio="none" width="100%" height="100%" overflow="visible" style="display: block;" viewBox="0 0 12.1118 12" fill="none" xmlns="http://www.w3.org/2000/svg">
<g id="Group 1">
<path id="Vector" d="M6.66242 0.246826L5.60264 1.458C6.41009 2.31592 8.50947 4.30427 10.4474 5.39433H0.152344V6.60551H10.4474C8.50947 7.69557 6.41009 9.68392 5.60264 10.5418L6.66242 11.753C7.41941 10.6428 9.53897 8.11948 11.9613 6.9083V5.09154C9.53897 3.88036 7.41941 1.35707 6.66242 0.246826Z" fill="var(--fill-0, black)"/>
<path id="Vector (Stroke)" d="M6.78656 0.161747C7.53749 1.26308 9.63934 3.76181 12.0281 4.95619L12.1118 4.99818V7.00182L12.0281 7.04381C9.63934 8.23819 7.53749 10.7369 6.78656 11.8383L6.67626 12L5.39737 10.5381L5.4914 10.4381C6.23719 9.64573 8.08245 7.89069 9.89641 6.75699H0V5.24301H9.89641C8.08245 4.10931 6.23719 2.35427 5.4914 1.56187L5.39737 1.46193L6.67626 0L6.78656 0.161747ZM5.80661 1.45335C6.67009 2.35292 8.67356 4.22356 10.5206 5.26253L11.0245 5.54581H0.302794V6.45419H11.0245L10.5206 6.73747C8.67367 7.77638 6.67017 9.64672 5.80661 10.5464L6.64847 11.5083C7.48336 10.336 9.49889 8.00276 11.809 6.81613V5.18358C9.49881 3.99686 7.48326 1.66361 6.64847 0.491449L5.80661 1.45335Z" fill="var(--fill-0, black)"/>
</g>
</svg>
