<svg preserveAspectRatio="none" width="100%" height="100%" overflow="visible" style="display: block;" viewBox="0 0 17.0668 17.066" fill="none" xmlns="http://www.w3.org/2000/svg">
<g id="Group">
<path id="Vector" d="M15.6002 0H9.45946C9.07081 0 8.69756 0.154727 8.42257 0.429717L0.429534 8.42128C-0.143178 8.994 -0.143178 9.92236 0.429534 10.4958L6.57024 16.6365C7.14295 17.2092 8.07131 17.2092 8.64403 16.6365L16.6371 8.64494C16.912 8.36922 17.0668 7.99597 17.0668 7.60658V1.46661C17.0668 0.656309 16.4105 0 15.6002 0ZM13.0336 5.13314C12.4264 5.13314 11.9336 4.64036 11.9336 4.03318C11.9336 3.426 12.4264 2.93322 13.0336 2.93322C13.6408 2.93322 14.1336 3.426 14.1336 4.03318C14.1336 4.64036 13.6408 5.13314 13.0336 5.13314Z" fill="var(--fill-0, #8C8C8C)"/>
</g>
</svg>
