<svg preserveAspectRatio="none" width="100%" height="100%" overflow="visible" style="display: block;" viewBox="0 0 16 16" fill="none" xmlns="http://www.w3.org/2000/svg">
<g id="Frame" clip-path="url(#clip0_0_55)">
<path id="Vector" d="M14.7341 7.04107L1.83526 0.748906C1.72433 0.694793 1.60251 0.666666 1.47908 0.666666C1.0304 0.666666 0.666666 1.0304 0.666666 1.47908V1.50253C0.666666 1.61154 0.680033 1.72015 0.706473 1.82591L1.94379 6.77513C1.97758 6.91033 2.09188 7.0102 2.23036 7.0256L7.66873 7.62987C7.85733 7.6508 8 7.8102 8 8C8 8.1898 7.85733 8.3492 7.66873 8.37013L2.23036 8.9744C2.09188 8.9898 1.97758 9.08967 1.94379 9.22487L0.706473 14.1741C0.680033 14.2799 0.666666 14.3885 0.666666 14.4975V14.5209C0.666666 14.9696 1.0304 15.3333 1.47908 15.3333C1.60251 15.3333 1.72433 15.3052 1.83526 15.2511L14.7341 8.95893C15.1007 8.78013 15.3333 8.40793 15.3333 8C15.3333 7.59207 15.1007 7.21987 14.7341 7.04107Z" fill="var(--fill-0, white)"/>
</g>
<defs>
<clipPath id="clip0_0_55">
<rect width="16" height="16" fill="white"/>
</clipPath>
</defs>
</svg>
