<svg preserveAspectRatio="none" width="100%" height="100%" overflow="visible" style="display: block;" viewBox="0 0 13.3333 13.3333" fill="none" xmlns="http://www.w3.org/2000/svg">
<g id="Group 1">
<path id="Vector" d="M7.33594 0.274251L6.16927 1.62C7.05816 2.57325 9.36927 4.78252 11.5026 5.9937H0.169271V7.33945H11.5026C9.36927 8.55063 7.05816 10.7599 6.16927 11.7131L7.33594 13.0589C8.16927 11.8253 10.5026 9.02164 13.1693 7.67589V5.65726C10.5026 4.31151 8.16927 1.50786 7.33594 0.274251Z" fill="var(--fill-0, #D8C689)"/>
<path id="Vector (Stroke)" d="M7.47103 0.179718C8.29769 1.40342 10.6115 4.17979 13.2412 5.50687L13.3333 5.55353V7.7798L13.2412 7.82646C10.6115 9.15354 8.29769 11.9299 7.47103 13.1536L7.34961 13.3333L5.94173 11.709L6.04525 11.5979C6.86625 10.7175 8.89762 8.76743 10.8945 7.50776H0V5.82557H10.8945C8.89762 4.5659 6.86625 2.61586 6.04525 1.73542L5.94173 1.62437L7.34961 0L7.47103 0.179718ZM6.39225 1.61484C7.34282 2.61436 9.54835 4.69284 11.5817 5.84726L12.1364 6.16201H0.333333V7.17132H12.1364L11.5817 7.48608C9.54847 8.64043 7.34291 10.7186 6.39225 11.7182L7.31901 12.7869C8.23811 11.4845 10.4569 8.89195 13 7.57347V5.75953C10.4568 4.44095 8.238 1.84846 7.31901 0.546055L6.39225 1.61484Z" fill="var(--fill-0, #D8C689)"/>
</g>
</svg>
