<svg width="13" height="13" viewBox="0 0 13 13" fill="none" xmlns="http://www.w3.org/2000/svg">
<path d="M9.26581 9.26581C9.74263 8.78899 10.1209 8.22292 10.3789 7.59993C10.637 6.97694 10.7698 6.30922 10.7698 5.63489C10.7698 4.96057 10.637 4.29285 10.3789 3.66985C10.1209 3.04686 9.74263 2.48079 9.26581 2.00398C8.78899 1.52716 8.22292 1.14892 7.59993 0.89087C6.97694 0.632818 6.30922 0.5 5.63489 0.5C4.96057 0.5 4.29285 0.632818 3.66985 0.89087C3.04686 1.14892 2.48079 1.52716 2.00398 2.00398C1.041 2.96695 0.5 4.27303 0.5 5.63489C0.5 6.99675 1.041 8.30283 2.00398 9.26581C2.96695 10.2288 4.27303 10.7698 5.63489 10.7698C6.99675 10.7698 8.30283 10.2288 9.26581 9.26581ZM9.26581 9.26581L12.5 12.5" stroke="white" stroke-linecap="round" stroke-linejoin="round"/>
</svg>
