<svg width="40" height="40" viewBox="0 0 40 40" fill="none" xmlns="http://www.w3.org/2000/svg">
<g clip-path="url(#clip0_145_3451)">
<path d="M20 0C8.95601 0 0 8.95601 0 20C0 31.044 8.95601 40 20 40C31.044 40 40 31.044 40 20C40 8.95601 31.044 0 20 0ZM30.0336 15.3026V18.0106C28.7566 18.0111 27.5159 17.7609 26.3458 17.2672C25.5934 16.9495 24.8923 16.5402 24.2512 16.0456L24.2704 24.381C24.2623 26.258 23.5198 28.0215 22.1758 29.3498C21.082 30.4311 19.6961 31.1187 18.1939 31.3413C17.8409 31.3935 17.4817 31.4203 17.1184 31.4203C15.5104 31.4203 13.9838 30.8994 12.7349 29.9383C12.4999 29.7573 12.2752 29.5612 12.0612 29.3498C10.6046 27.9102 9.85352 25.9591 9.98 23.9066C10.0765 22.3441 10.702 20.8541 11.7448 19.6862C13.1245 18.1407 15.0547 17.2829 17.1184 17.2829C17.4817 17.2829 17.8409 17.3102 18.1939 17.3624V18.3637V21.149C17.8592 21.0386 17.5018 20.9779 17.1296 20.9779C15.2441 20.9779 13.7188 22.5162 13.747 24.403C13.7648 25.6103 14.4243 26.6656 15.397 27.2473C15.8541 27.5208 16.3799 27.6902 16.9411 27.7209C17.3808 27.7451 17.803 27.6838 18.1939 27.5548C19.541 27.1098 20.5128 25.8445 20.5128 24.3521L20.5173 18.7703V8.57969H24.2466C24.2502 8.94922 24.2877 9.30977 24.3574 9.65914C24.6389 11.0733 25.436 12.3002 26.5454 13.1366C27.5127 13.8662 28.7173 14.2987 30.0228 14.2987L30.0335 14.2978L30.0336 15.3026Z" fill="url(#paint0_linear_145_3451)"/>
<path d="M30.0336 18.0106V15.3026L30.0335 14.2978L30.0228 14.2987C28.7173 14.2987 27.5127 13.8662 26.5454 13.1366C25.436 12.3002 24.6389 11.0733 24.3574 9.65914C24.2877 9.30977 24.2502 8.94922 24.2466 8.57969H20.5173V18.7703L20.5128 24.3521C20.5128 25.8445 19.541 27.1098 18.1939 27.5548C17.803 27.6838 17.3808 27.7451 16.9411 27.7209C16.3799 27.6902 15.8541 27.5208 15.397 27.2473C14.4243 26.6656 13.7648 25.6103 13.747 24.403C13.7188 22.5162 15.2441 20.9779 17.1296 20.9779C17.5018 20.9779 17.8592 21.0386 18.1939 21.149V18.3637V17.3624C17.8409 17.3102 17.4817 17.2829 17.1184 17.2829C15.0547 17.2829 13.1245 18.1407 11.7448 19.6862C10.702 20.8541 10.0765 22.3441 9.98 23.9066C9.85352 25.9591 10.6046 27.9102 12.0612 29.3498C12.2752 29.5612 12.4999 29.7573 12.7349 29.9383C13.9838 30.8994 15.5104 31.4203 17.1184 31.4203C17.4817 31.4203 17.8409 31.3935 18.1939 31.3413C19.6961 31.1187 21.082 30.4311 22.1758 29.3498C23.5198 28.0215 24.2623 26.258 24.2704 24.381L24.2512 16.0456C24.8923 16.5402 25.5934 16.9495 26.3458 17.2672C27.5159 17.7609 28.7566 18.0111 30.0336 18.0106Z" fill="url(#paint1_linear_145_3451)"/>
<path d="M29.566 18.0305V15.3499L29.5659 14.3554L29.5557 14.3562C28.3111 14.3562 27.1628 13.9281 26.2406 13.2059C25.1831 12.378 24.4232 11.1636 24.1548 9.7638C24.0884 9.41798 24.0526 9.06109 24.0492 8.69531H20.4939V18.7825L20.4897 24.3076C20.4897 25.7848 19.5633 27.0372 18.2791 27.4777C17.9064 27.6055 17.5039 27.6661 17.0847 27.6422C16.5498 27.6117 16.0485 27.4441 15.6127 27.1734C14.6854 26.5976 14.0568 25.553 14.0397 24.358C14.0128 22.4903 15.467 20.9676 17.2645 20.9676C17.6193 20.9676 17.96 21.0277 18.2791 21.137V18.3799V17.3889C17.9426 17.3371 17.6001 17.3101 17.2538 17.3101C15.2864 17.3101 13.4464 18.1592 12.1311 19.689C11.137 20.8451 10.5406 22.32 10.4486 23.8666C10.3281 25.8983 11.0441 27.8296 12.4327 29.2546C12.6366 29.4637 12.8509 29.6579 13.0749 29.837C14.2655 30.7884 15.7208 31.304 17.2538 31.304C17.6001 31.304 17.9426 31.2775 18.2791 31.2257C19.7111 31.0054 21.0323 30.3248 22.075 29.2546C23.3563 27.9397 24.0642 26.1941 24.0719 24.3362L24.0535 16.0854C24.6648 16.575 25.3331 16.9802 26.0503 17.2946C27.1659 17.7833 28.3486 18.031 29.566 18.0305Z" fill="white"/>
</g>
<defs>
<linearGradient id="paint0_linear_145_3451" x1="0" y1="20" x2="40" y2="20" gradientUnits="userSpaceOnUse">
<stop stop-color="#70411E"/>
<stop offset="1" stop-color="#EEDC9F"/>
</linearGradient>
<linearGradient id="paint1_linear_145_3451" x1="0" y1="20" x2="40" y2="20" gradientUnits="userSpaceOnUse">
<stop stop-color="#70411E"/>
<stop offset="1" stop-color="#EEDC9F"/>
</linearGradient>
<clipPath id="clip0_145_3451">
<rect width="40" height="40" fill="white"/>
</clipPath>
</defs>
</svg>
