<svg width="40" height="40" viewBox="0 0 40 40" fill="none" xmlns="http://www.w3.org/2000/svg">
<rect width="40" height="40" rx="20" fill="url(#paint0_linear_379_2336)"/>
<g clip-path="url(#clip0_379_2336)">
<path d="M25.5071 22.3072L25.4981 22.3822C23.2991 21.2862 23.0691 21.1402 22.7851 21.5662C22.5881 21.8612 22.0141 22.5302 21.8411 22.7282C21.6661 22.9232 21.4921 22.9382 21.1951 22.8032C20.8951 22.6532 19.9321 22.3382 18.7921 21.3182C17.9041 20.5232 17.3081 19.5482 17.1321 19.2482C16.8391 18.7422 17.4521 18.6702 18.0101 17.6142C18.1101 17.4042 18.0591 17.2392 17.9851 17.0902C17.9101 16.9402 17.3131 15.4702 17.0631 14.8842C16.8231 14.3002 16.5761 14.3742 16.3911 14.3742C15.8151 14.3242 15.3941 14.3322 15.0231 14.7182C13.4091 16.4922 13.8161 18.3222 15.1971 20.2682C17.9111 23.8202 19.3571 24.4742 22.0011 25.3822C22.7151 25.6092 23.3661 25.5772 23.8811 25.5032C24.4551 25.4122 25.6481 24.7822 25.8971 24.0772C26.1521 23.3722 26.1521 22.7872 26.0771 22.6522C26.0031 22.5172 25.8071 22.4422 25.5071 22.3072Z" fill="white"/>
<path d="M28.52 11.4485C20.831 4.01546 8.106 9.40646 8.101 19.8925C8.101 21.9885 8.65 24.0325 9.696 25.8375L8 31.9995L14.335 30.3475C22.24 34.6175 31.996 28.9475 32 19.8985C32 16.7225 30.76 13.7335 28.505 11.4875L28.52 11.4485ZM30.002 19.8655C29.996 27.4985 21.617 32.2655 14.99 28.3695L14.63 28.1555L10.88 29.1305L11.885 25.4855L11.646 25.1105C7.522 18.5455 12.26 9.96546 20.072 9.96546C22.726 9.96546 25.217 11.0005 27.093 12.8755C28.968 14.7345 30.002 17.2255 30.002 19.8655Z" fill="white"/>
</g>
<defs>
<linearGradient id="paint0_linear_379_2336" x1="0" y1="20" x2="40" y2="20" gradientUnits="userSpaceOnUse">
<stop stop-color="#70411E"/>
<stop offset="1" stop-color="#EEDC9F"/>
</linearGradient>
<clipPath id="clip0_379_2336">
<rect width="24" height="24" fill="white" transform="translate(8 8)"/>
</clipPath>
</defs>
</svg>
