<svg width="40" height="40" viewBox="0 0 40 40" fill="none" xmlns="http://www.w3.org/2000/svg">
<g clip-path="url(#clip0_323_6937)">
<path d="M20 40C31.0457 40 40 31.0457 40 20C40 8.95431 31.0457 0 20 0C8.95431 0 0 8.95431 0 20C0 31.0457 8.95431 40 20 40Z" fill="white"/>
<path d="M30.5261 28.9777V21.8247C30.5261 18.3238 29.7728 15.6299 25.6819 15.6299C23.7145 15.6299 22.3955 16.7075 21.8567 17.7314H21.8007V15.9566H17.9219V28.9777H21.9591V22.5293C21.9591 20.8227 22.281 19.1893 24.3971 19.1893C26.5133 19.1893 26.4986 21.1397 26.4986 22.639V28.9777H30.5261Z" fill="#3872BE"/>
<path d="M11.3438 15.9561H15.3859V28.9772H11.3438V15.9561Z" fill="#3872BE"/>
<path d="M13.3624 9.47365C12.8961 9.47173 12.4398 9.60837 12.0514 9.86625C11.663 10.1241 11.3599 10.4916 11.1807 10.922C11.0015 11.3525 10.9542 11.8264 11.0449 12.2838C11.1356 12.7411 11.3601 13.1612 11.6899 13.4907C12.0198 13.8202 12.4401 14.0443 12.8975 14.1345C13.355 14.2247 13.8289 14.1769 14.2591 13.9972C14.6894 13.8176 15.0565 13.5142 15.314 13.1255C15.5715 12.7368 15.7077 12.2803 15.7052 11.8141C15.7052 11.5065 15.6446 11.202 15.5269 10.9179C15.4091 10.6338 15.2365 10.3757 15.0189 10.1583C14.8013 9.94093 14.543 9.76858 14.2588 9.65111C13.9745 9.53363 13.6699 9.47333 13.3624 9.47365Z" fill="#3872BE"/>
</g>
<defs>
<clipPath id="clip0_323_6937">
<rect width="40" height="40" fill="white"/>
</clipPath>
</defs>
</svg>
