<svg width="40" height="40" viewBox="0 0 40 40" fill="none" xmlns="http://www.w3.org/2000/svg">
<g clip-path="url(#clip0_323_6953)">
<path fill-rule="evenodd" clip-rule="evenodd" d="M9.68648 0H30.3135C35.6409 0 40 4.28748 40 9.52716V30.4728C40 35.7125 35.6409 40 30.3135 40H9.68648C4.35914 40 0 35.7125 0 30.4728V9.52716C7.94319e-05 4.28748 4.35914 0 9.68648 0Z" fill="white"/>
<path d="M20.0729 23.5751C20.3021 23.3465 20.6034 23.2313 20.9046 23.2313C21.2039 23.2313 21.5051 23.3465 21.7344 23.5751C21.9636 23.8037 22.0792 24.1041 22.0792 24.4026C22.0792 24.7029 21.9636 25.0033 21.7344 25.2319L18.3887 28.568C17.9208 29.0347 17.3771 29.3879 16.7955 29.6259C16.1931 29.8753 15.5527 30 14.9123 30V29.9981C14.2702 29.9981 13.6279 29.8734 13.0273 29.626C12.4457 29.388 11.9039 29.0347 11.436 28.5681C10.9681 28.1015 10.6138 27.5593 10.3732 26.9813C10.125 26.3805 10.0019 25.742 10.0019 25.1016H10C10 24.4631 10.125 23.8246 10.3732 23.2219C10.6138 22.6438 10.9681 22.1016 11.436 21.6351L14.7816 18.2989C15.2496 17.8323 15.7933 17.479 16.373 17.2391C16.9773 16.9917 17.6177 16.867 18.258 16.867V16.8689C18.9002 16.8689 19.5405 16.9916 20.143 17.2391C20.7227 17.479 21.2665 17.8323 21.7344 18.2989C21.9636 18.5275 22.0773 18.826 22.0773 19.1263C22.0773 19.4267 21.9636 19.7271 21.7344 19.9556C21.5051 20.1842 21.2039 20.2976 20.9046 20.2976C20.6034 20.2976 20.3021 20.1842 20.0729 19.9556C19.8285 19.7101 19.5463 19.5268 19.2451 19.4022C18.9325 19.2737 18.5952 19.2094 18.2581 19.2094C17.5988 19.2094 16.9414 19.4588 16.4432 19.9556L13.0975 23.2918C12.8512 23.5355 12.6674 23.817 12.5424 24.1173C12.4136 24.429 12.3492 24.7653 12.3492 25.1016C12.3492 25.4379 12.4136 25.7741 12.5424 26.0858C12.6674 26.3862 12.8512 26.6677 13.0975 26.9113C13.3419 27.1569 13.6241 27.3402 13.9254 27.4649C14.2398 27.5934 14.5752 27.6576 14.9123 27.6576C15.5697 27.6576 16.229 27.4082 16.7273 26.9114L20.0729 23.5751ZM19.9271 16.4248C19.6978 16.6534 19.3966 16.7668 19.0954 16.7668C18.7961 16.7668 18.4949 16.6534 18.2656 16.4248C18.0364 16.1962 17.9208 15.8959 17.9208 15.5955C17.9208 15.297 18.0364 14.9967 18.2656 14.7681L21.6113 11.4319C22.0792 10.9653 22.6229 10.612 23.2026 10.3721C23.8069 10.1247 24.4473 10 25.0876 10C25.728 10 26.3702 10.1247 26.9727 10.3721C27.5542 10.6121 28.0961 10.9653 28.564 11.4319C29.032 11.8985 29.3862 12.4387 29.6268 13.0187C29.875 13.6195 30 14.2599 30 14.8984C30 15.5351 29.875 16.1754 29.6268 16.7762C29.3862 17.3562 29.0319 17.8964 28.564 18.3649L25.2184 21.701C24.7505 22.1676 24.2067 22.5209 23.627 22.7589C23.0227 23.0083 22.3823 23.1311 21.742 23.1311C21.0998 23.1311 20.4595 23.0064 19.857 22.7589C19.2773 22.5209 18.7335 22.1676 18.2656 21.701C18.0364 21.4725 17.9227 21.1721 17.9227 20.8717C17.9227 20.5714 18.0364 20.2729 18.2656 20.0443C18.4949 19.8157 18.7961 19.7005 19.0954 19.7005C19.3966 19.7005 19.6978 19.8157 19.9271 20.0443C20.1715 20.2899 20.4537 20.4731 20.7549 20.5959C21.0694 20.7262 21.4066 20.7905 21.7419 20.7905C22.4012 20.7905 23.0586 20.5411 23.5568 20.0443L26.9025 16.7081C27.1488 16.4625 27.3326 16.181 27.4576 15.8826C27.5864 15.569 27.6508 15.2346 27.6508 14.8984H27.6528C27.6528 14.5621 27.5865 14.2277 27.4576 13.9141C27.3326 13.6137 27.1488 13.3323 26.9025 13.0867C26.6581 12.8429 26.3759 12.6578 26.0746 12.535C25.7602 12.4066 25.4229 12.3404 25.0876 12.3404V12.3424C24.4283 12.3424 23.771 12.5898 23.2727 13.0867L19.9271 16.4248Z" fill="#FFAD0F"/>
</g>
<defs>
<clipPath id="clip0_323_6953">
<rect width="40" height="40" rx="20" fill="white"/>
</clipPath>
</defs>
</svg>
